:FULLY-SPECIFIED
:FORCE-ALL-JOINTS-BE-3DOF
:DEGREES
612
root -4.24033 15.6176 -40.5839 347.22 -74.8435 380.004
lfemur -2.8383 13.0487 -15.9332
ltibia 41.1297 0 0
lfoot -23.4198 32.2859 0
ltoes -24.5758 0 0
rfemur -45.0503 -32.3421 16.7953
rtibia 80.1271 0 0
rfoot -13.7121 -16.7742 0
rtoes -2.63968 0 0
lowerback 10.3234 5.12596 -7.46356
upperback -2.71803 5.62117 -1.66948
thorax -9.26596 3.06945 1.33259
lowerneck 1.70595 -11.393 -12.3637
upperneck -1.26621 -15.4655 11.9422
head 1.18795 -7.76857 5.19546
lclavicle -5.85553e-14 5.48443e-15 0
lhumerus -80.0006 -23.569 107.586
lradius 103.848 0 0
lwrist 60.6976 0 0
lhand 8.73752 59.5853 0
lfingers 7.12502 0 0
lthumb 33.933 86.4313 0
rclavicle -5.85553e-14 5.48443e-15 0
rhumerus 26.2599 16.8185 -45.1201
rradius 92.7033 0 0
rwrist -25.3272 0 0
rhand -26.9479 -37.6656 0
rfingers 7.12502 0 0
rthumb -0.355667 -67.873 0
613
root -4.22013 15.6376 -40.5302 349.366 -75.0568 377.862
lfemur -4.09928 13.1191 -16.1372
ltibia 41.7829 0 0
lfoot -23.12 31.8105 0
ltoes -24.5179 0 0
rfemur -44.1354 -32.4427 17.2441
rtibia 80.0242 0 0
rfoot -14.1169 -17.5264 0
rtoes -2.70588 0 0
lowerback 10.3067 5.09843 -7.31639
upperback -2.76033 5.61816 -1.62027
thorax -9.29578 3.0612 1.30482
lowerneck 1.58647 -11.2437 -12.2618
upperneck -1.1012 -15.2624 11.8912
head 1.23338 -7.66545 5.16379
lclavicle -5.99113e-14 4.72212e-15 0
lhumerus -78.3722 -23.6749 107.095
lradius 103.512 0 0
lwrist 59.7197 0 0
lhand 8.5078 59.0064 0
lfingers 7.12502 0 0
lthumb 33.7133 85.8869 0
rclavicle -5.99113e-14 4.72212e-15 0
rhumerus 26.5169 16.907 -45.5056
rradius 94.6388 0 0
rwrist -26.5147 0 0
rhand -26.7054 -37.1056 0
rfingers 7.12502 0 0
rthumb -0.124333 -67.2672 0
614
root -4.20553 15.6572 -40.4746 351.755 -75.2729 375.473
lfemur -5.48302 13.1869 -16.3441
ltibia 42.4964 0 0
lfoot -22.792 31.2695 0
ltoes -24.431 0 0
rfemur -43.1554 -32.5195 17.7057
rtibia 79.8614 0 0
rfoot -14.5422 -18.3067 0
rtoes -2.81805 0 0
lowerback 10.2991 5.06585 -7.13952
upperback -2.80129 5.61444 -1.55955
thorax -9.32838 3.0512 1.27239
lowerneck 1.46532 -11.0778 -12.1451
upperneck -0.943354 -15.0364 11.8277
head 1.27375 -7.55085 5.12773
lclavicle -6.11274e-14 3.88694e-15 0
lhumerus -76.5315 -23.793 106.544
lradius 103.134 0 0
lwrist 58.6085 0 0
lhand 8.27812 58.3643 0
lfingers 7.12502 0 0
lthumb 33.4937 85.2799 0
rclavicle -6.11274e-14 3.88694e-15 0
rhumerus 26.7754 17.0201 -45.9219
rradius 96.5867 0 0
rwrist -27.7262 0 0
rhand -26.3761 -36.5032 0
rfingers 7.12502 0 0
rthumb 0.190348 -66.6114 0
615
root -4.19675 15.6764 -40.4169 354.396 -75.4918 372.828
lfemur -6.99455 13.2519 -16.5545
ltibia 43.2722 0 0
lfoot -22.435 30.6604 0
ltoes -24.3137 0 0
rfemur -42.1079 -32.5714 18.1804
rtibia 79.6362 0 0
rfoot -14.9889 -19.1168 0
rtoes -2.97883 0 0
lowerback 10.3011 5.02811 -6.93154
upperback -2.8409 5.61015 -1.48685
thorax -9.36387 3.03945 1.23496
lowerneck 1.34269 -10.8946 -12.0129
upperneck -0.793573 -14.7867 11.751
head 1.3086 -7.42431 5.08713
lclavicle -6.21972e-14 2.97636e-15 0
lhumerus -74.4697 -23.9242 105.932
lradius 102.712 0 0
lwrist 57.3576 0 0
lhand 8.04952 57.6566 0
lfingers 7.12502 0 0
lthumb 33.2752 84.608 0
rclavicle -6.21972e-14 2.97636e-15 0
rhumerus 27.0359 17.1592 -46.3698
rradius 98.5468 0 0
rwrist -28.9623 0 0
rhand -25.956 -35.8575 0
rfingers 7.12502 0 0
rthumb 0.592406 -65.9042 0
616
root -4.19404 15.6951 -40.3571 357.301 -75.7136 369.916
lfemur -8.63886 13.314 -16.7685
ltibia 44.112 0 0
lfoot -22.0479 29.9806 0
ltoes -24.1644 0 0
rfemur -40.9905 -32.5974 18.6687
rtibia 79.3461 0 0
rfoot -15.4578 -19.9581 0
rtoes -3.19088 0 0
lowerback 10.3128 4.98507 -6.69108
upperback -2.87916 5.60538 -1.40172
thorax -9.40235 3.02593 1.1922
lowerneck 1.21875 -10.6936 -11.8647
upperneck -0.652777 -14.5121 11.6607
head 1.3375 -7.28534 5.04183
lclavicle -6.31141e-14 1.98785e-15 0
lhumerus -72.178 -24.0693 105.256
lradius 102.244 0 0
lwrist 55.9607 0 0
lhand 7.82303 56.8809 0
lfingers 7.12502 0 0
lthumb 33.0588 83.8687 0
rclavicle -6.31141e-14 1.98785e-15 0
rhumerus 27.2987 17.326 -46.8499
rradius 100.519 0 0
rwrist -30.2236 0 0
rhand -25.4408 -35.1675 0
rfingers 7.12502 0 0
rthumb 1.08587 -65.1445 0
617
root -4.19463 15.7132 -40.2989 360.304 -75.938 366.898
lfemur -10.3396 13.3622 -16.9831
ltibia 44.9844 0 0
lfoot -21.6471 29.2643 0
ltoes -23.9999 0 0
rfemur -39.8647 -32.6047 19.1564
rtibia 79.0111 0 0
rfoot -15.9261 -20.7884 0
rtoes -3.4329 0 0
lowerback 10.3367 4.9382 -6.43338
upperback -2.9138 5.59905 -1.309
thorax -9.44318 3.01081 1.14767
lowerneck 1.09867 -10.4887 -11.7116
upperneck -0.522395 -14.2319 11.5636
head 1.361 -7.14355 4.99492
lclavicle -6.38497e-14 9.41462e-16 0
lhumerus -69.7874 -24.2422 104.526
lradius 101.794 0 0
lwrist 54.5399 0 0
lhand 7.61685 56.0645 0
lfingers 7.12502 0 0
lthumb 32.862 83.0882 0
rclavicle -6.38497e-14 9.41462e-16 0
rhumerus 27.6059 17.5075 -47.3288
rradius 102.414 0 0
rwrist -31.4405 0 0
rhand -24.8487 -34.4362 0
rfingers 7.12502 0 0
rthumb 1.65328 -64.337 0
618
root -4.19573 15.7305 -40.246 363.238 -76.1641 363.94
lfemur -12.0174 13.3864 -17.1943
ltibia 45.8565 0 0
lfoot -21.2495 28.547 0
ltoes -23.8375 0 0
rfemur -38.7918 -32.6011 19.6289
rtibia 78.6533 0 0
rfoot -16.371 -21.5657 0
rtoes -3.68182 0 0
lowerback 10.3746 4.8891 -6.17455
upperback -2.94272 5.59003 -1.21385
thorax -9.48553 2.99426 1.10513
lowerneck 0.987202 -10.2939 -11.565
upperneck -0.402884 -13.9651 11.4666
head 1.38009 -7.00854 4.94949
lclavicle -6.43844e-14 -1.3905e-16 0
lhumerus -67.433 -24.4539 103.757
lradius 101.424 0 0
lwrist 53.2167 0 0
lhand 7.44661 55.237 0
lfingers 7.12502 0 0
lthumb 32.6999 82.2949 0
rclavicle -6.43844e-14 -1.3905e-16 0
rhumerus 27.9944 17.6892 -47.7745
rradius 104.148 0 0
rwrist -32.5466 0 0
rhand -24.2027 -33.6694 0
rfingers 7.12502 0 0
rthumb 2.2725 -63.4897 0
619
root -4.19751 15.7469 -40.198 366.107 -76.3911 361.036
lfemur -13.673 13.3882 -17.4016
ltibia 46.7282 0 0
lfoot -20.8549 27.8287 0
ltoes -23.6768 0 0
rfemur -37.7692 -32.5865 20.0863
rtibia 78.273 0 0
rfoot -16.7933 -22.292 0
rtoes -3.93756 0 0
lowerback 10.4258 4.83784 -5.91451
upperback -2.96612 5.57842 -1.11629
thorax -9.52925 2.97634 1.0645
lowerneck 0.883851 -10.1085 -11.4243
upperneck -0.293704 -13.7108 11.3697
head 1.395 -6.87981 4.9054
lclavicle -6.47252e-14 -1.25066e-15 0
lhumerus -65.1117 -24.701 102.951
lradius 101.128 0 0
lwrist 51.9838 0 0
lhand 7.30949 54.3992 0
lfingers 7.12502 0 0
lthumb 32.5697 81.49 0
rclavicle -6.47252e-14 -1.25066e-15 0
rhumerus 28.4563 17.8711 -48.1894
rradius 105.727 0 0
rwrist -33.5471 0 0
rhand -23.5059 -32.87 0
rfingers 7.12502 0 0
rthumb 2.94055 -62.6059 0
